<svg width="54" height="49" viewBox="0 0 54 49" fill="none" xmlns="http://www.w3.org/2000/svg">
<path d="M8.13055 12.0219L24.209 2.88642C25.7388 2.01722 27.6109 2.0075 29.1496 2.86078L45.6218 11.9951C49.1682 13.9616 49.0643 19.096 45.4413 20.9176L28.9669 29.2005C27.5251 29.9254 25.8234 29.917 24.3888 29.178L8.3125 20.8962C4.7487 19.0603 4.64499 14.0024 8.13055 12.0219Z" stroke="#181D18" stroke-width="3.02804"/>
<path d="M4.74414 26.8215L10.4903 29.9872L24.3237 37.6082C25.8237 38.4346 27.6405 38.4439 29.1489 37.6329L44.0098 29.6425L49.2563 26.8215" stroke="#181D18" stroke-width="3.02804" stroke-linecap="round"/>
<path d="M4.74414 35.401L10.4903 38.5667L24.3237 46.1877C25.8237 47.0141 27.6405 47.0234 29.1489 46.2123L44.0098 38.2219L49.2563 35.401" stroke="#181D18" stroke-width="3.02804" stroke-linecap="round"/>
</svg>
